<svg xmlns="http://www.w3.org/2000/svg" width="90.31mm" height="105.83mm" viewBox="0 0 256 300">
  <g>
    <g>
      <path d="M41.64,256.2a2.26,2.26,0,0,0-1.06-2,6.51,6.51,0,0,0-1.52-.75,15.68,15.68,0,0,0-2.35-.62,23.82,23.82,0,0,1-3.15-.86,10.58,10.58,0,0,1-2.43-1.19,5.35,5.35,0,0,1-1.56-1.63A4.14,4.14,0,0,1,29,247a4.77,4.77,0,0,1,.57-2.29,6,6,0,0,1,1.62-1.87,8.21,8.21,0,0,1,2.47-1.26,10.29,10.29,0,0,1,3.17-.46,10.8,10.8,0,0,1,3.33.48,7.72,7.72,0,0,1,2.53,1.34,6,6,0,0,1,1.6,2,5.42,5.42,0,0,1,.56,2.46H41.43a2.64,2.64,0,0,0-.33-1.27,3.49,3.49,0,0,0-.93-1.11,4.76,4.76,0,0,0-1.43-.78,6,6,0,0,0-1.9-.29,6.9,6.9,0,0,0-1.92.24,4.21,4.21,0,0,0-1.38.65,2.7,2.7,0,0,0-.82.94,2.35,2.35,0,0,0-.28,1.12,2.38,2.38,0,0,0,.22,1,2.24,2.24,0,0,0,.77.84,6,6,0,0,0,1.47.66,21,21,0,0,0,2.32.58,26.63,26.63,0,0,1,3.32.9A10,10,0,0,1,43,252.11a5.1,5.1,0,0,1,1.53,1.66,4.44,4.44,0,0,1,.53,2.19,5,5,0,0,1-.6,2.43,5.86,5.86,0,0,1-1.68,1.87,8.32,8.32,0,0,1-2.58,1.21,12.17,12.17,0,0,1-3.28.42,11.37,11.37,0,0,1-3.64-.54,8.89,8.89,0,0,1-2.7-1.45,6.21,6.21,0,0,1-1.68-2.09,5.5,5.5,0,0,1-.59-2.46h3.43a3.54,3.54,0,0,0,.57,1.78,4,4,0,0,0,1.22,1.17,5.42,5.42,0,0,0,1.63.63,8.84,8.84,0,0,0,1.76.18,6.4,6.4,0,0,0,3.43-.79A2.47,2.47,0,0,0,41.64,256.2Z"/>
      <path d="M59,256.59l.31,1.24.34-1.24,5.62-15.13h3.5l-8.18,20.06H57.94l-8.25-20.06h3.52Z"/>
      <path d="M82.75,261.89a10.19,10.19,0,0,1-3.88-.72,8.75,8.75,0,0,1-3-2,9.27,9.27,0,0,1-2-3.08,10.44,10.44,0,0,1-.71-3.87v-.78a11.47,11.47,0,0,1,.78-4.35A10.06,10.06,0,0,1,76,243.82a9.14,9.14,0,0,1,2.93-2,8.45,8.45,0,0,1,3.37-.7,9,9,0,0,1,3.79.75,7.42,7.42,0,0,1,2.7,2.08A8.87,8.87,0,0,1,90.4,247a13.85,13.85,0,0,1,.53,3.89v1.54H76.59a8.06,8.06,0,0,0,.53,2.58,6.75,6.75,0,0,0,1.3,2.11,6,6,0,0,0,2,1.42,6.16,6.16,0,0,0,2.54.51,6.9,6.9,0,0,0,3.26-.74,7.08,7.08,0,0,0,2.37-2l2.1,1.63a7.59,7.59,0,0,1-1.25,1.45,8.37,8.37,0,0,1-1.74,1.24,9.68,9.68,0,0,1-2.22.86A10.55,10.55,0,0,1,82.75,261.89Zm-.44-18a5,5,0,0,0-2,.38,5.08,5.08,0,0,0-1.67,1.11,6.48,6.48,0,0,0-1.25,1.8,8.35,8.35,0,0,0-.71,2.46H87.5v-.26a8.13,8.13,0,0,0-.38-2,5.68,5.68,0,0,0-1-1.76,4.79,4.79,0,0,0-1.58-1.26A5,5,0,0,0,82.31,243.91Z"/>
      <path d="M97.22,233h10.25v25.52H114v3H97.22v-3H104V236H97.22Z"/>
      <path d="M127.59,236.6v4.86h7.64v2.65h-7.64V255a5.28,5.28,0,0,0,.3,1.93,2.88,2.88,0,0,0,2,1.86,5.57,5.57,0,0,0,1.44.18c.37,0,.75,0,1.15-.06s.78-.1,1.16-.16l1-.19.81-.18.48,2.43a4.84,4.84,0,0,1-1,.45,12.84,12.84,0,0,1-1.33.34q-.72.13-1.53.21c-.54.05-1.07.07-1.61.07a7.73,7.73,0,0,1-2.49-.38,5.14,5.14,0,0,1-2-1.2,5.73,5.73,0,0,1-1.35-2.13,9.26,9.26,0,0,1-.49-3.17v-10.9h-5.26v-2.65h5.26V236.6Z"/>
      <path d="M145.69,244.44a7.73,7.73,0,0,1,2.65-2.45,7.23,7.23,0,0,1,3.55-.9,8.62,8.62,0,0,1,2.86.45A5.61,5.61,0,0,1,157,243a6.6,6.6,0,0,1,1.4,2.44,11,11,0,0,1,.49,3.49v12.63h-3.43V248.86a5,5,0,0,0-1.18-3.67,4.41,4.41,0,0,0-3.36-1.19,5.72,5.72,0,0,0-3,.81,6.38,6.38,0,0,0-2.18,2.14v14.57h-3.43V233h3.43Z"/>
      <path d="M178.2,241.09l1,0a9.83,9.83,0,0,1,1,.09,6.93,6.93,0,0,1,.88.16,4.25,4.25,0,0,1,.65.2l-.46,3.36a18.54,18.54,0,0,0-1.9-.33,16.29,16.29,0,0,0-1.88-.1,6.47,6.47,0,0,0-3.91,1.09,6.34,6.34,0,0,0-2.19,3.06v12.87h-3.45V241.46h3.26l.17,3.19A9.15,9.15,0,0,1,174.3,242,7.93,7.93,0,0,1,178.2,241.09Z"/>
      <path d="M196.71,261.89a10.24,10.24,0,0,1-3.89-.72,8.71,8.71,0,0,1-3-2,9.29,9.29,0,0,1-2-3.08,10.44,10.44,0,0,1-.7-3.87v-.78a11.47,11.47,0,0,1,.78-4.35,10.06,10.06,0,0,1,2.07-3.25,9,9,0,0,1,2.93-2,8.4,8.4,0,0,1,3.36-.7,8.93,8.93,0,0,1,3.79.75,7.26,7.26,0,0,1,2.7,2.08,8.89,8.89,0,0,1,1.61,3.12,13.85,13.85,0,0,1,.53,3.89v1.54H190.55a7.8,7.8,0,0,0,.53,2.58,6.57,6.57,0,0,0,1.3,2.11,6.1,6.1,0,0,0,2,1.42,6.23,6.23,0,0,0,2.54.51,6.94,6.94,0,0,0,3.27-.74,7.08,7.08,0,0,0,2.37-2l2.1,1.63a8,8,0,0,1-1.26,1.45,8.3,8.3,0,0,1-1.73,1.24,9.77,9.77,0,0,1-2.23.86A10.47,10.47,0,0,1,196.71,261.89Zm-.45-18a5.1,5.1,0,0,0-3.63,1.49,6.27,6.27,0,0,0-1.25,1.8,8.66,8.66,0,0,0-.72,2.46h10.79v-.26a7.29,7.29,0,0,0-.38-2,5.45,5.45,0,0,0-.95-1.76,4.73,4.73,0,0,0-1.59-1.26A5,5,0,0,0,196.26,243.91Z"/>
      <path d="M219.5,261.89a10.24,10.24,0,0,1-3.89-.72,8.71,8.71,0,0,1-3-2,9.27,9.27,0,0,1-2-3.08,10.44,10.44,0,0,1-.71-3.87v-.78a11.47,11.47,0,0,1,.78-4.35,10.06,10.06,0,0,1,2.07-3.25,9,9,0,0,1,2.93-2,8.4,8.4,0,0,1,3.36-.7,9,9,0,0,1,3.8.75,7.31,7.31,0,0,1,2.69,2.08,8.72,8.72,0,0,1,1.61,3.12,13.85,13.85,0,0,1,.53,3.89v1.54H213.34a8.06,8.06,0,0,0,.53,2.58,6.75,6.75,0,0,0,1.3,2.11,6.1,6.1,0,0,0,2,1.42,6.23,6.23,0,0,0,2.54.51,6.91,6.91,0,0,0,3.27-.74,7.08,7.08,0,0,0,2.37-2l2.1,1.63a8,8,0,0,1-1.25,1.45,8.64,8.64,0,0,1-1.74,1.24,9.87,9.87,0,0,1-2.22.86A10.55,10.55,0,0,1,219.5,261.89Zm-.45-18a5.1,5.1,0,0,0-3.63,1.49,6.27,6.27,0,0,0-1.25,1.8,8.66,8.66,0,0,0-.72,2.46h10.8v-.26a8.13,8.13,0,0,0-.38-2,5.68,5.68,0,0,0-1-1.76,4.79,4.79,0,0,0-1.58-1.26A5,5,0,0,0,219.05,243.91Z"/>
    </g>
    <g>
      <path d="M110.41,205a59,59,0,0,1-48.14-25,54.74,54.74,0,0,1-9.22-41.17,49.18,49.18,0,0,1,5.25-15.24A53.83,53.83,0,0,1,55,93.32a51.2,51.2,0,0,1,23.3-34.6l37.8-24.2c25.3-16.05,60.05-8.64,77.56,16.5a53.89,53.89,0,0,1,9.24,41.33,49,49,0,0,1-5.25,15.25A53.88,53.88,0,0,1,201,137.94a51.2,51.2,0,0,1-23.3,34.6l-37.82,24.07A54.66,54.66,0,0,1,110.41,205ZM145.73,42.48a38.63,38.63,0,0,0-20.78,6L87.1,72.65A34.79,34.79,0,0,0,71.23,96.17a37,37,0,0,0,3.68,24l2.34,4.36-2.74,4.12a33.22,33.22,0,0,0-5.2,13,38.19,38.19,0,0,0,6.43,28.84c12.64,18,37.41,23.46,55.24,12.14l37.87-24.1a34.76,34.76,0,0,0,15.86-23.5,37.15,37.15,0,0,0-3.68-24l-2.35-4.36,2.75-4.12a33.37,33.37,0,0,0,5.2-13l0-.17a37.39,37.39,0,0,0-6.42-28.75l-.1-.14A42.09,42.09,0,0,0,145.73,42.48Z"/>
      <path d="M186.91,55.79c-15-21.62-44.9-28-66.38-14.32L82.66,65.71A43,43,0,0,0,63.1,94.76a45.1,45.1,0,0,0,4.54,29.34,41.78,41.78,0,0,0-6.47,16.25,46.35,46.35,0,0,0,7.85,35c15.15,21.62,44.9,28,66.38,14.32l37.88-24.1a43,43,0,0,0,19.55-29.06,45.08,45.08,0,0,0-4.54-29.33,41.63,41.63,0,0,0,6.47-16.25,45.37,45.37,0,0,0-7.85-35.12" style="fill: #fff"/>
      <path d="M116.81,177.4a30.05,30.05,0,0,1-32.23-12,27.94,27.94,0,0,1-4.82-21.08c.28-1.24.55-2.34.83-3.58l.69-2.2,1.93,1.38a50.22,50.22,0,0,0,14.87,7.43l1.38.42-.14,1.37a9.06,9.06,0,0,0,11.29,9.37,12.06,12.06,0,0,0,2.34-1l37.74-24.11a7.79,7.79,0,0,0,3.58-5.23,8.55,8.55,0,0,0-1.38-6.33,9,9,0,0,0-9.77-3.59,12.44,12.44,0,0,0-2.35,1l-14.46,9.23a25.68,25.68,0,0,1-7.71,3.3,30,30,0,0,1-32.23-12,27.84,27.84,0,0,1-4.68-21.07A26.07,26.07,0,0,1,93.54,81.27l37.87-24.1a29.13,29.13,0,0,1,39.94,8.54,27.87,27.87,0,0,1,4.82,21.07,34,34,0,0,1-1,3.58l-.68,2.2-1.93-1.38a50.27,50.27,0,0,0-14.88-7.43l-1.37-.42.13-1.37A9.21,9.21,0,0,0,155,76.31a9,9,0,0,0-9.78-3.58,12,12,0,0,0-2.34,1L105.1,97.79a7.85,7.85,0,0,0-3.58,5.24,8.55,8.55,0,0,0,1.38,6.33,9,9,0,0,0,9.78,3.58,11.7,11.7,0,0,0,2.34-1l14.46-9.23a29.17,29.17,0,0,1,39.94,8.54,27.88,27.88,0,0,1,4.82,21.07,26.09,26.09,0,0,1-11.84,17.49L124.52,174a29.82,29.82,0,0,1-7.71,3.45" style="fill: #ff3e00"/>
    </g>
  </g>
</svg>
