<svg xmlns="http://www.w3.org/2000/svg" width="98.35" height="118.23" viewBox="0 0 98.35 118.23">
  <g>
    <path d="M92,15.69C81.05.09,59.45-4.61,43.75,5.39l-27.5,17.5A31.25,31.25,0,0,0,2.05,44a32.74,32.74,0,0,0,3.3,21.3,30.19,30.19,0,0,0-4.7,11.8,33.65,33.65,0,0,0,5.7,25.4c11,15.7,32.6,20.3,48.2,10.4l27.5-17.5a31.25,31.25,0,0,0,14.2-21.1A32.74,32.74,0,0,0,93,53a30.19,30.19,0,0,0,4.7-11.8A33,33,0,0,0,92,15.69" style="fill: none;stroke: #000;stroke-width: 0.25px"/>
    <path d="M41.05,104a21.8,21.8,0,0,1-23.4-8.7A20.25,20.25,0,0,1,14.15,80c.2-.9.4-1.7.6-2.6l.5-1.6,1.4,1a36.48,36.48,0,0,0,10.8,5.4l1,.3-.1,1a6.69,6.69,0,0,0,1.1,4.1,6.62,6.62,0,0,0,7.1,2.7,8.65,8.65,0,0,0,1.7-.7l27.4-17.5a5.67,5.67,0,0,0,2.6-3.8,6.21,6.21,0,0,0-1-4.6,6.56,6.56,0,0,0-7.1-2.6,8.65,8.65,0,0,0-1.7.7L48,68.49a18.6,18.6,0,0,1-5.6,2.4A21.8,21.8,0,0,1,19,62.19a20.2,20.2,0,0,1-3.4-15.3,18.94,18.94,0,0,1,8.6-12.7l27.4-17.5a21.17,21.17,0,0,1,29,6.2,20.25,20.25,0,0,1,3.5,15.3,25,25,0,0,1-.7,2.6l-.4,1.6-1.4-1A36.48,36.48,0,0,0,70.75,36l-1-.3.1-1a6.69,6.69,0,0,0-1.1-4.1,6.56,6.56,0,0,0-7.1-2.6,8.65,8.65,0,0,0-1.7.7l-27.4,17.5A5.45,5.45,0,0,0,30,50a6.21,6.21,0,0,0,1,4.6,6.56,6.56,0,0,0,7.1,2.6,8.65,8.65,0,0,0,1.7-.7l10.5-6.7a21.17,21.17,0,0,1,29,6.2,20.25,20.25,0,0,1,3.5,15.3A18.94,18.94,0,0,1,74.15,84l-27.4,17.5a20.62,20.62,0,0,1-5.7,2.5" style="fill: none;stroke: #ff3e00;stroke-width: 0.25px"/>
  </g>
</svg>
