<svg xmlns="http://www.w3.org/2000/svg" width="99.93" height="118.01" viewBox="0 0 99.93 118.01">
  <g>
    <path d="M38.37,118A38.91,38.91,0,0,1,6.63,101.54,36.07,36.07,0,0,1,.56,74.4,32.31,32.31,0,0,1,4,64.35a35.56,35.56,0,0,1-2.18-20A33.78,33.78,0,0,1,17.19,21.54L42.11,5.59C58.78-5,81.7-.11,93.24,16.47a35.53,35.53,0,0,1,6.09,27.25,32.24,32.24,0,0,1-3.46,10.05,35.57,35.57,0,0,1,2.19,20A33.76,33.76,0,0,1,82.7,96.58L57.77,112.45A36.12,36.12,0,0,1,38.37,118ZM61.65,10.84A25.44,25.44,0,0,0,48,14.76l-25,16a23,23,0,0,0-10.46,15.5A24.46,24.46,0,0,0,15,62.07l1.55,2.87L14.7,67.66a21.87,21.87,0,0,0-3.43,8.59,25.27,25.27,0,0,0,4.24,19c8.33,11.89,24.66,15.47,36.42,8l25-15.88a22.93,22.93,0,0,0,10.45-15.5,24.37,24.37,0,0,0-2.43-15.83l-1.54-2.88,1.81-2.72a22,22,0,0,0,3.43-8.59l0-.11A24.6,24.6,0,0,0,84.4,22.81l-.06-.1A27.75,27.75,0,0,0,61.65,10.84Z"/>
    <path d="M88.8,19.61C78.91,5.36,59.2,1.18,45,10.17l-25,16A28.37,28.37,0,0,0,7.18,45.31a29.72,29.72,0,0,0,3,19.34A27.27,27.27,0,0,0,5.91,75.36a30.56,30.56,0,0,0,5.17,23.06c10,14.26,29.6,18.43,43.77,9.44L79.81,92a28.39,28.39,0,0,0,12.9-19.16,29.71,29.71,0,0,0-3-19.34A27.48,27.48,0,0,0,94,42.77,29.91,29.91,0,0,0,88.8,19.61" style="fill: #fff"/>
    <path d="M42.59,99.78a19.8,19.8,0,0,1-21.25-7.9A18.38,18.38,0,0,1,18.17,78c.18-.81.36-1.54.54-2.36l.45-1.45,1.28.91a33,33,0,0,0,9.8,4.9l.91.27-.09.91a6.05,6.05,0,0,0,1,3.72,6,6,0,0,0,6.44,2.45,8,8,0,0,0,1.55-.63L64.92,70.82a5.17,5.17,0,0,0,2.37-3.45,5.69,5.69,0,0,0-.91-4.18,6,6,0,0,0-6.45-2.36,7.9,7.9,0,0,0-1.54.64l-9.54,6.08a16.66,16.66,0,0,1-5.08,2.18,19.8,19.8,0,0,1-21.25-7.9,18.34,18.34,0,0,1-3.08-13.89,17.15,17.15,0,0,1,7.81-11.53l25-15.89a19.23,19.23,0,0,1,26.33,5.63A18.35,18.35,0,0,1,81.72,40a22.89,22.89,0,0,1-.63,2.36l-.46,1.45L79.36,43A33.15,33.15,0,0,0,69.56,38l-.91-.27.09-.91a6.05,6.05,0,0,0-1-3.72,6,6,0,0,0-6.45-2.36,7.33,7.33,0,0,0-1.54.64L34.87,47.3a5.15,5.15,0,0,0-2.36,3.45,5.63,5.63,0,0,0,.91,4.18,6,6,0,0,0,6.45,2.36,7.88,7.88,0,0,0,1.54-.63l9.53-6.09A19.23,19.23,0,0,1,77.27,56.2a18.36,18.36,0,0,1,3.18,13.89,17.16,17.16,0,0,1-7.81,11.53l-25,15.89a19.42,19.42,0,0,1-5.08,2.27" style="fill: #ff3e00"/>
  </g>
</svg>
