<svg xmlns="http://www.w3.org/2000/svg" width="183.09mm" height="49.04mm" viewBox="0 0 519 139">
  <g>
    <path d="M163.82,83.45A4,4,0,0,0,162,79.91a11.14,11.14,0,0,0-2.68-1.32,29.63,29.63,0,0,0-4.15-1.1,41.14,41.14,0,0,1-5.55-1.5,18,18,0,0,1-4.28-2.11A9.34,9.34,0,0,1,142.52,71a7.41,7.41,0,0,1-1-3.84,8.43,8.43,0,0,1,1-4,10.34,10.34,0,0,1,2.85-3.29,14.39,14.39,0,0,1,4.37-2.23,18.24,18.24,0,0,1,5.57-.81,18.91,18.91,0,0,1,5.89.85A13.36,13.36,0,0,1,165.68,60a10.69,10.69,0,0,1,2.83,3.52,9.56,9.56,0,0,1,1,4.33h-6a4.72,4.72,0,0,0-.59-2.24,6.27,6.27,0,0,0-1.64-1.94,8.39,8.39,0,0,0-2.53-1.38,10.09,10.09,0,0,0-3.36-.52,12.25,12.25,0,0,0-3.38.42,7.67,7.67,0,0,0-2.42,1.15A4.8,4.8,0,0,0,148.08,65a4.16,4.16,0,0,0-.49,2,4.24,4.24,0,0,0,.39,1.86,3.93,3.93,0,0,0,1.36,1.48,10.19,10.19,0,0,0,2.59,1.17,37,37,0,0,0,4.1,1,50.52,50.52,0,0,1,5.86,1.58,17.65,17.65,0,0,1,4.35,2.16,9,9,0,0,1,2.7,2.93,7.79,7.79,0,0,1,.93,3.86,8.85,8.85,0,0,1-1.06,4.29,10.1,10.1,0,0,1-3,3.3,14.39,14.39,0,0,1-4.55,2.13,21.24,21.24,0,0,1-5.79.75,19.77,19.77,0,0,1-6.41-1A15.29,15.29,0,0,1,144.34,90a10.89,10.89,0,0,1-3-3.68,9.66,9.66,0,0,1-1-4.35h6a6.25,6.25,0,0,0,1,3.14,7,7,0,0,0,2.16,2.06,8.85,8.85,0,0,0,2.86,1.12,15.79,15.79,0,0,0,3.11.32,11.31,11.31,0,0,0,6.05-1.4A4.34,4.34,0,0,0,163.82,83.45Z"/>
    <path d="M194.37,84.13l.56,2.2.59-2.2,9.91-26.69h6.18l-14.42,35.4h-4.62L178,57.44h6.21Z"/>
    <path d="M236.34,93.49a18,18,0,0,1-6.85-1.28,15.49,15.49,0,0,1-5.35-3.56,16.45,16.45,0,0,1-3.47-5.43,18.37,18.37,0,0,1-1.24-6.84V75a20.33,20.33,0,0,1,1.37-7.67,17.76,17.76,0,0,1,3.65-5.73A16,16,0,0,1,229.62,58a14.89,14.89,0,0,1,5.94-1.24,15.85,15.85,0,0,1,6.69,1.32A13.22,13.22,0,0,1,247,61.77a15.69,15.69,0,0,1,2.83,5.52,24.28,24.28,0,0,1,.93,6.87v2.71H225.48a14.18,14.18,0,0,0,.93,4.55,11.88,11.88,0,0,0,2.29,3.71,10.66,10.66,0,0,0,8,3.42,12.35,12.35,0,0,0,5.76-1.31,12.54,12.54,0,0,0,4.19-3.47l3.69,2.88a13.74,13.74,0,0,1-2.21,2.57,15.49,15.49,0,0,1-3,2.18,17.38,17.38,0,0,1-3.93,1.52A18.93,18.93,0,0,1,236.34,93.49Zm-.78-31.73a9,9,0,0,0-6.41,2.63,11.07,11.07,0,0,0-2.21,3.17,15.13,15.13,0,0,0-1.26,4.34h19v-.46a13.79,13.79,0,0,0-.67-3.5,9.88,9.88,0,0,0-1.69-3.11,8.52,8.52,0,0,0-2.79-2.22A8.78,8.78,0,0,0,235.56,61.76Z"/>
    <path d="M261.86,42.59H280v45H291.5v5.24H261.86V87.6h12V47.86h-12Z"/>
    <path d="M315.44,48.87v8.57h13.48v4.68H315.44V81.35a9.46,9.46,0,0,0,.53,3.41,5.46,5.46,0,0,0,1.44,2.14A5.33,5.33,0,0,0,319.52,88a9.43,9.43,0,0,0,2.53.32,17.74,17.74,0,0,0,2-.11c.7-.08,1.38-.17,2.05-.28s1.28-.22,1.86-.34l1.42-.31.85,4.28a7.8,7.8,0,0,1-1.83.8,19.65,19.65,0,0,1-2.35.59,26.6,26.6,0,0,1-2.7.38c-.95.09-1.89.13-2.83.13a13.94,13.94,0,0,1-4.4-.67,9.1,9.1,0,0,1-3.55-2.13,10,10,0,0,1-2.37-3.76,15.87,15.87,0,0,1-.87-5.58V62.12h-9.29V57.44h9.29V48.87Z"/>
    <path d="M347.37,62.71a13.82,13.82,0,0,1,4.68-4.34,12.88,12.88,0,0,1,6.25-1.58,15,15,0,0,1,5.05.8,9.63,9.63,0,0,1,3.88,2.5,11.44,11.44,0,0,1,2.47,4.3,19.54,19.54,0,0,1,.87,6.17V92.84h-6.06V70.49q0-4.35-2.07-6.47a7.85,7.85,0,0,0-5.94-2.1,10.05,10.05,0,0,0-5.28,1.43,11.29,11.29,0,0,0-3.85,3.77V92.84h-6.05V42.59h6.05Z"/>
    <path d="M404.72,56.79c.57,0,1.16,0,1.77,0s1.19.09,1.75.17,1.06.17,1.53.28a7.5,7.5,0,0,1,1.17.36l-.82,5.92a32.81,32.81,0,0,0-3.36-.57,29.3,29.3,0,0,0-3.32-.18,11.33,11.33,0,0,0-6.88,1.93,11.08,11.08,0,0,0-3.88,5.39V92.84H386.6V57.44h5.75l.3,5.63a16.32,16.32,0,0,1,5.18-4.6A14,14,0,0,1,404.72,56.79Z"/>
    <path d="M437.37,93.49a18,18,0,0,1-6.86-1.28,15.44,15.44,0,0,1-5.34-3.56,16.3,16.3,0,0,1-3.47-5.43,18.37,18.37,0,0,1-1.24-6.84V75a20.13,20.13,0,0,1,1.37-7.67,17.59,17.59,0,0,1,3.65-5.73A15.86,15.86,0,0,1,430.65,58a14.84,14.84,0,0,1,5.93-1.24,15.81,15.81,0,0,1,6.69,1.32A13.13,13.13,0,0,1,448,61.77a15.53,15.53,0,0,1,2.83,5.52,24.27,24.27,0,0,1,.94,6.87v2.71H426.51a13.66,13.66,0,0,0,.93,4.55,11.88,11.88,0,0,0,2.29,3.71,10.53,10.53,0,0,0,3.48,2.5,10.66,10.66,0,0,0,4.48.92,12.23,12.23,0,0,0,9.95-4.78l3.7,2.88a14.12,14.12,0,0,1-2.21,2.57,15.27,15.27,0,0,1-3.06,2.18,17.2,17.2,0,0,1-3.93,1.52A18.9,18.9,0,0,1,437.37,93.49Zm-.79-31.73a9,9,0,0,0-6.41,2.63A11.27,11.27,0,0,0,428,67.56a15.13,15.13,0,0,0-1.26,4.34h19v-.46a13.37,13.37,0,0,0-.67-3.5,9.85,9.85,0,0,0-1.68-3.11,8.56,8.56,0,0,0-2.8-2.22A8.76,8.76,0,0,0,436.58,61.76Z"/>
    <path d="M477.57,93.49a18,18,0,0,1-6.85-1.28,15.49,15.49,0,0,1-5.35-3.56,16.45,16.45,0,0,1-3.47-5.43,18.37,18.37,0,0,1-1.24-6.84V75A20.33,20.33,0,0,1,462,67.34a17.76,17.76,0,0,1,3.65-5.73A16,16,0,0,1,470.85,58a14.89,14.89,0,0,1,5.94-1.24,15.85,15.85,0,0,1,6.69,1.32,13.22,13.22,0,0,1,4.76,3.66,15.69,15.69,0,0,1,2.83,5.52,24.28,24.28,0,0,1,.93,6.87v2.71H466.71a14.18,14.18,0,0,0,.93,4.55,11.88,11.88,0,0,0,2.29,3.71,10.66,10.66,0,0,0,8,3.42,12.2,12.2,0,0,0,9.94-4.78l3.7,2.88a13.74,13.74,0,0,1-2.21,2.57,15.27,15.27,0,0,1-3.06,2.18,17.11,17.11,0,0,1-3.92,1.52A18.93,18.93,0,0,1,477.57,93.49Zm-.78-31.73a9,9,0,0,0-6.41,2.63,11.07,11.07,0,0,0-2.21,3.17,15.13,15.13,0,0,0-1.26,4.34h19v-.46a13.79,13.79,0,0,0-.67-3.5,9.88,9.88,0,0,0-1.69-3.11,8.52,8.52,0,0,0-2.79-2.22A8.78,8.78,0,0,0,476.79,61.76Z"/>
  </g>
  <g>
    <path d="M56.88,129.54a38.89,38.89,0,0,1-31.73-16.47,36.06,36.06,0,0,1-6.08-27.14,32.42,32.42,0,0,1,3.46-10.05,35.56,35.56,0,0,1-2.19-20A33.81,33.81,0,0,1,35.7,33.07L60.62,17.12C77.3,6.54,100.21,11.43,111.75,28a35.49,35.49,0,0,1,6.1,27.25,32.76,32.76,0,0,1-3.46,10,35.49,35.49,0,0,1,2.18,20,33.7,33.7,0,0,1-15.36,22.81L76.28,124A36.09,36.09,0,0,1,56.88,129.54ZM80.17,22.37a25.44,25.44,0,0,0-13.7,3.92l-24.95,16a22.93,22.93,0,0,0-10.47,15.5A24.47,24.47,0,0,0,33.48,73.6L35,76.47l-1.82,2.72a21.86,21.86,0,0,0-3.42,8.59,25.19,25.19,0,0,0,4.24,19c8.33,11.89,24.66,15.47,36.42,8l25-15.88a22.87,22.87,0,0,0,10.45-15.49,24.45,24.45,0,0,0-2.42-15.84l-1.55-2.88L103.7,62a21.87,21.87,0,0,0,3.43-8.59l0-.11a24.59,24.59,0,0,0-4.23-18.95l-.07-.1A27.73,27.73,0,0,0,80.17,22.37Z"/>
    <path d="M107.32,31.14c-9.9-14.25-29.6-18.43-43.76-9.44l-25,16a28.42,28.42,0,0,0-12.9,19.16,29.71,29.71,0,0,0,3,19.34,27.48,27.48,0,0,0-4.27,10.71A30.57,30.57,0,0,0,29.6,110c10,14.26,29.6,18.43,43.76,9.44l25-15.88a28.37,28.37,0,0,0,12.89-19.16,29.77,29.77,0,0,0-3-19.34,27.46,27.46,0,0,0,4.26-10.71,29.91,29.91,0,0,0-5.17-23.16" style="fill: #fff"/>
    <path d="M61.1,111.31a19.79,19.79,0,0,1-21.24-7.89,18.37,18.37,0,0,1-3.18-13.9c.18-.81.36-1.54.55-2.36l.45-1.45,1.27.91a33.06,33.06,0,0,0,9.81,4.9l.9.27-.09.91a6.12,6.12,0,0,0,1,3.72A6,6,0,0,0,57,98.88a8.57,8.57,0,0,0,1.54-.64L83.44,82.35A5.15,5.15,0,0,0,85.8,78.9a5.64,5.64,0,0,0-.91-4.18,6,6,0,0,0-6.44-2.36A8.67,8.67,0,0,0,76.9,73l-9.53,6.08a16.82,16.82,0,0,1-5.09,2.18A19.78,19.78,0,0,1,41,73.36,18.3,18.3,0,0,1,38,59.47a17.19,17.19,0,0,1,7.81-11.53l25-15.89a19.22,19.22,0,0,1,26.33,5.63,18.45,18.45,0,0,1,3.18,13.89c-.19.82-.37,1.55-.64,2.36l-.45,1.46-1.28-.91a33,33,0,0,0-9.8-4.91l-.91-.27.09-.91a6.05,6.05,0,0,0-1-3.72,6,6,0,0,0-6.44-2.36,7.41,7.41,0,0,0-1.55.64L53.39,58.84A5.11,5.11,0,0,0,51,62.29a5.61,5.61,0,0,0,.9,4.17,6,6,0,0,0,6.45,2.36,7.88,7.88,0,0,0,1.54-.63l9.54-6.09a20.26,20.26,0,0,1,5.08-2.27,19.81,19.81,0,0,1,21.25,7.9A18.4,18.4,0,0,1,99,81.62a17.19,17.19,0,0,1-7.8,11.54L66.19,109a19.63,19.63,0,0,1-5.09,2.27" style="fill: #ff3e00"/>
  </g>
</svg>
