<svg xmlns="http://www.w3.org/2000/svg" width="426.34" height="61.71" viewBox="0 0 426.34 61.71">
  <g>
    <path d="M28.48,49.54A5.31,5.31,0,0,0,28,47.18a5.22,5.22,0,0,0-1.74-1.93A13.93,13.93,0,0,0,23,43.65a33.79,33.79,0,0,0-5-1.33,51.38,51.38,0,0,1-6.73-1.83A21.65,21.65,0,0,1,6,37.93a11.09,11.09,0,0,1-3.35-3.49,8.85,8.85,0,0,1-1.19-4.66A10.14,10.14,0,0,1,2.7,24.89a12.54,12.54,0,0,1,3.45-4,17.23,17.23,0,0,1,5.29-2.7,22,22,0,0,1,6.76-1,23.22,23.22,0,0,1,7.14,1,16.33,16.33,0,0,1,5.4,2.86,13,13,0,0,1,3.43,4.26,11.78,11.78,0,0,1,1.21,5.26H28a5.75,5.75,0,0,0-.71-2.72,7.79,7.79,0,0,0-2-2.36,10,10,0,0,0-3.07-1.66,12,12,0,0,0-4.07-.64,14.43,14.43,0,0,0-4.1.52,9.12,9.12,0,0,0-2.94,1.38,6,6,0,0,0-1.76,2,5.06,5.06,0,0,0-.6,2.38,5.14,5.14,0,0,0,.48,2.26,4.67,4.67,0,0,0,1.65,1.78A12.27,12.27,0,0,0,14.06,35a46.42,46.42,0,0,0,5,1.23,58.52,58.52,0,0,1,7.1,1.92,21.06,21.06,0,0,1,5.27,2.62,10.85,10.85,0,0,1,3.27,3.55A9.37,9.37,0,0,1,35.81,49a10.57,10.57,0,0,1-1.29,5.19,12.12,12.12,0,0,1-3.59,4,17.45,17.45,0,0,1-5.51,2.58,25.54,25.54,0,0,1-7,.91,23.85,23.85,0,0,1-7.77-1.17,18.51,18.51,0,0,1-5.77-3.09A13.42,13.42,0,0,1,1.25,53,11.87,11.87,0,0,1,0,47.71H7.34a7.54,7.54,0,0,0,1.21,3.81A8.52,8.52,0,0,0,11.16,54a11,11,0,0,0,3.47,1.34,18.1,18.1,0,0,0,3.77.4,13.7,13.7,0,0,0,7.34-1.7A5.27,5.27,0,0,0,28.48,49.54Z"/>
    <path d="M65.52,50.37,66.19,53l.72-2.66L78.92,18h7.5L68.93,60.92H63.34L45.69,18h7.53Z"/>
    <path d="M116.4,61.71a21.84,21.84,0,0,1-8.31-1.55,18.89,18.89,0,0,1-6.48-4.32,19.8,19.8,0,0,1-4.21-6.58A22.42,22.42,0,0,1,95.9,41V39.3A24.59,24.59,0,0,1,97.56,30,21.35,21.35,0,0,1,102,23.06a19.12,19.12,0,0,1,6.26-4.34,18,18,0,0,1,7.2-1.51,19.15,19.15,0,0,1,8.11,1.61,15.91,15.91,0,0,1,5.77,4.44,19,19,0,0,1,3.43,6.68,29.58,29.58,0,0,1,1.13,8.33v3.29H103.23a17,17,0,0,0,1.13,5.52,14.44,14.44,0,0,0,2.78,4.5,13,13,0,0,0,4.22,3,13.1,13.1,0,0,0,5.44,1.11,14.75,14.75,0,0,0,12-5.79l4.49,3.49a17.44,17.44,0,0,1-2.68,3.12A18.28,18.28,0,0,1,127,59.17,21.07,21.07,0,0,1,122.19,61,23,23,0,0,1,116.4,61.71Zm-1-38.47a10.85,10.85,0,0,0-7.77,3.19A13.69,13.69,0,0,0,105,30.28a18.16,18.16,0,0,0-1.53,5.25h23.08V35a16.05,16.05,0,0,0-.81-4.24,11.76,11.76,0,0,0-2-3.77,10.29,10.29,0,0,0-3.39-2.7A10.62,10.62,0,0,0,115.45,23.24Z"/>
    <path d="M147.34,0h21.93V54.57h14v6.35H147.34V54.57h14.59V6.39H147.34Z"/>
    <path d="M212.3,7.61V18h16.34v5.67H212.3V47a11.51,11.51,0,0,0,.63,4.12,6.59,6.59,0,0,0,1.75,2.6,6.42,6.42,0,0,0,2.56,1.37,11.74,11.74,0,0,0,3.07.39,21,21,0,0,0,2.46-.14c.84-.09,1.67-.2,2.48-.33s1.56-.27,2.26-.42,1.27-.27,1.72-.38l1,5.2a10,10,0,0,1-2.22,1,24.66,24.66,0,0,1-2.85.72c-1,.19-2.12.35-3.27.45s-2.3.16-3.43.16a17.07,17.07,0,0,1-5.34-.81,11,11,0,0,1-4.3-2.58A12.21,12.21,0,0,1,206,53.76,19.32,19.32,0,0,1,204.92,47V23.68H193.66V18h11.26V7.61Z"/>
    <path d="M251,24.39a16.5,16.5,0,0,1,5.67-5.25,15.56,15.56,0,0,1,7.57-1.93,18.55,18.55,0,0,1,6.13,1,11.69,11.69,0,0,1,4.7,3,13.75,13.75,0,0,1,3,5.21,23.75,23.75,0,0,1,1.06,7.48v27h-7.34V33.83c0-3.52-.84-6.13-2.52-7.85s-4.08-2.57-7.2-2.54a12.18,12.18,0,0,0-6.4,1.72A13.79,13.79,0,0,0,251,29.74V60.92h-7.34V0H251Z"/>
    <path d="M320.53,17.21c.69,0,1.4,0,2.14.06s1.45.11,2.12.2,1.3.21,1.87.34a8.56,8.56,0,0,1,1.41.43l-1,7.18a36.7,36.7,0,0,0-4.06-.69,34.75,34.75,0,0,0-4-.22,13.76,13.76,0,0,0-8.34,2.34,13.47,13.47,0,0,0-4.7,6.54V60.92h-7.38V18h7l.36,6.82a19.75,19.75,0,0,1,6.28-5.58A16.9,16.9,0,0,1,320.53,17.21Z"/>
    <path d="M360.11,61.71a21.84,21.84,0,0,1-8.31-1.55,18.89,18.89,0,0,1-6.48-4.32,19.8,19.8,0,0,1-4.21-6.58,22.42,22.42,0,0,1-1.5-8.29V39.3a24.59,24.59,0,0,1,1.66-9.3,21.5,21.5,0,0,1,4.42-6.94A19.26,19.26,0,0,1,352,18.72a18,18,0,0,1,7.2-1.51,19.15,19.15,0,0,1,8.11,1.61A15.91,15.91,0,0,1,373,23.26a19,19,0,0,1,3.43,6.68,29.58,29.58,0,0,1,1.13,8.33v3.29H346.94a17,17,0,0,0,1.13,5.52,14.44,14.44,0,0,0,2.78,4.5,12.86,12.86,0,0,0,4.22,3,13.06,13.06,0,0,0,5.44,1.11,14.75,14.75,0,0,0,12.05-5.79L377,53.42a17,17,0,0,1-2.67,3.12,18.28,18.28,0,0,1-3.71,2.63A21.07,21.07,0,0,1,365.9,61,23,23,0,0,1,360.11,61.71Zm-.95-38.47a10.85,10.85,0,0,0-7.77,3.19,13.49,13.49,0,0,0-2.68,3.85,18.16,18.16,0,0,0-1.53,5.25h23.08V35a16.46,16.46,0,0,0-.81-4.24,11.76,11.76,0,0,0-2-3.77,10.29,10.29,0,0,0-3.39-2.7A10.65,10.65,0,0,0,359.16,23.24Z"/>
    <path d="M408.85,61.71a21.84,21.84,0,0,1-8.31-1.55,18.89,18.89,0,0,1-6.48-4.32,19.62,19.62,0,0,1-4.2-6.58A22.22,22.22,0,0,1,388.35,41V39.3A24.59,24.59,0,0,1,390,30a21.35,21.35,0,0,1,4.43-6.94,19.12,19.12,0,0,1,6.26-4.34,18,18,0,0,1,7.2-1.51A19.15,19.15,0,0,1,416,18.82a15.91,15.91,0,0,1,5.77,4.44,19,19,0,0,1,3.43,6.68,29.23,29.23,0,0,1,1.13,8.33v3.29H395.69a16.76,16.76,0,0,0,1.13,5.52,14.41,14.41,0,0,0,2.77,4.5,12.9,12.9,0,0,0,4.23,3,13.05,13.05,0,0,0,5.43,1.11,14.75,14.75,0,0,0,12.05-5.79l4.49,3.49a17.44,17.44,0,0,1-2.68,3.12,18.28,18.28,0,0,1-3.71,2.63A21.07,21.07,0,0,1,414.64,61,23,23,0,0,1,408.85,61.71Zm-1-38.47a10.85,10.85,0,0,0-7.77,3.19,13.69,13.69,0,0,0-2.68,3.85,18.16,18.16,0,0,0-1.53,5.25H419V35a16.48,16.48,0,0,0-.82-4.24,11.76,11.76,0,0,0-2-3.77,10.29,10.29,0,0,0-3.39-2.7A10.62,10.62,0,0,0,407.9,23.24Z"/>
  </g>
</svg>
